<svg width="144" height="40" viewBox="0 0 144 40" fill="none" xmlns="http://www.w3.org/2000/svg">
<path d="M34.0558 6.35074C34.0558 6.35074 37.9572 -0.598277 40.9335 0.0416296C43.9098 0.681537 39.6939 11.9811 39.6939 11.9811L34.0538 6.3487L34.0558 6.35074Z" fill="#10999E"/>
<path d="M14.0395 6.35074C14.0395 6.35074 10.1381 -0.598277 7.16177 0.0416296C4.18549 0.681537 8.40138 11.9811 8.40138 11.9811L14.0415 6.3487L14.0395 6.35074Z" fill="#10999E"/>
<path d="M48.0952 24.827C48.0952 36.5518 37.3283 40.0008 24.0476 40.0008C10.767 40.0008 0 36.5518 0 24.827C0 13.1022 7.54924 3.68555 24.0456 3.68555C38.9168 3.68555 48.0932 13.1022 48.0932 24.827H48.0952Z" fill="#50D2C2"/>
<path d="M16.1575 19.6565C16.1575 16.8033 13.8622 14.4902 11.0307 14.4902C8.19923 14.4902 5.90387 16.8033 5.90387 19.6565V25.0681C5.90387 27.9214 8.19923 30.2344 11.0307 30.2344C13.8622 30.2344 16.1575 27.9214 16.1575 25.0681V19.6565Z" fill="white"/>
<path d="M40.9741 13.5634C40.8787 13.5634 40.7813 13.5409 40.69 13.4939C39.56 12.9051 38.3386 12.6086 37.0605 12.6086C36.0927 12.6086 35.1493 12.7824 34.2526 13.1259C33.932 13.2485 33.5729 13.085 33.4512 12.764C33.3295 12.441 33.4918 12.0791 33.8103 11.9564C34.847 11.5598 35.9406 11.3574 37.0584 11.3574C38.5151 11.3574 39.9678 11.7111 41.2581 12.3817C41.5624 12.5391 41.6821 12.9173 41.5259 13.224C41.4163 13.4387 41.1993 13.5634 40.9741 13.5634Z" fill="#1DA897"/>
<path d="M7.11713 13.5634C6.89193 13.5634 6.67484 13.4407 6.56529 13.224C6.40907 12.9173 6.52674 12.5391 6.83309 12.3817C8.12139 11.7111 9.57403 11.3574 11.0328 11.3574C12.1506 11.3574 13.2442 11.5578 14.2809 11.9564C14.6014 12.0791 14.7617 12.441 14.64 12.764C14.5183 13.087 14.1592 13.2485 13.8386 13.1259C12.9419 12.7824 11.9964 12.6086 11.0307 12.6086C9.75256 12.6086 8.53121 12.9071 7.40116 13.4939C7.30986 13.5409 7.21248 13.5634 7.11713 13.5634Z" fill="#1DA897"/>
<path d="M42.1893 19.6565C42.1893 16.8033 39.894 14.4902 37.0625 14.4902C34.231 14.4902 31.9357 16.8033 31.9357 19.6565V25.0681C31.9357 27.9214 34.231 30.2344 37.0625 30.2344C39.894 30.2344 42.1893 27.9214 42.1893 25.0681V19.6565Z" fill="white"/>
<path d="M14.9464 20.0323V25.0677C14.9464 26.9609 13.4187 28.5024 11.5379 28.5024C9.65722 28.5024 8.12952 26.9609 8.12952 25.0677V20.3962C8.40747 20.5189 8.71382 20.5863 9.0364 20.5863C10.2943 20.5863 11.3148 19.558 11.3148 18.2904C11.3148 17.6751 11.0754 17.1169 10.6838 16.706C10.9557 16.6365 11.2438 16.5977 11.5379 16.5977C13.4187 16.5977 14.9464 18.1392 14.9464 20.0323Z" fill="#0B2D28"/>
<path d="M39.9617 20.0322V25.0676C39.9617 26.9608 38.43 28.5023 36.5513 28.5023C34.6726 28.5023 33.1449 26.9608 33.1449 25.0676V20.0322C33.1449 19.8462 33.1591 19.6642 33.1875 19.4884C33.5872 20.1467 34.3074 20.5863 35.1311 20.5863C36.389 20.5863 37.4095 19.5579 37.4095 18.2904C37.4095 17.6218 37.1254 17.0208 36.673 16.5996C38.4969 16.665 39.9617 18.18 39.9617 20.0322Z" fill="#0B2D28"/>
<path d="M26.1921 28.2094C26.722 28.2094 27.1517 27.7765 27.1517 27.2424C27.1517 26.7083 26.722 26.2754 26.1921 26.2754C25.6621 26.2754 25.2324 26.7083 25.2324 27.2424C25.2324 27.7765 25.6621 28.2094 26.1921 28.2094Z" fill="#1DA897"/>
<path d="M21.9011 28.2094C22.4311 28.2094 22.8607 27.7765 22.8607 27.2424C22.8607 26.7083 22.4311 26.2754 21.9011 26.2754C21.3711 26.2754 20.9415 26.7083 20.9415 27.2424C20.9415 27.7765 21.3711 28.2094 21.9011 28.2094Z" fill="#1DA897"/>
<path d="M26.0785 33.5535C26.0785 33.5535 26.6161 35.5468 27.588 35.4568C28.5598 35.3669 28.4969 33.0996 28.4969 33.0996L26.0765 33.5535H26.0785Z" fill="white"/>
<path d="M22.0148 33.5535C22.0148 33.5535 21.4771 35.5468 20.5053 35.4568C19.5335 35.3669 19.5964 33.0996 19.5964 33.0996L22.0168 33.5535H22.0148Z" fill="white"/>
<path d="M24.0456 34.1605C21.544 34.1605 19.1155 33.4184 17.2064 32.0691C17.0198 31.9362 16.9731 31.6766 17.105 31.4885C17.2368 31.3004 17.4945 31.2554 17.6812 31.3862C19.4523 32.6374 21.7124 33.3264 24.0456 33.3264C26.3787 33.3264 28.6368 32.6374 30.41 31.3862C30.5966 31.2534 30.8563 31.3004 30.9862 31.4885C31.118 31.6766 31.0714 31.9362 30.8847 32.0691C28.9756 33.4184 26.5471 34.1605 24.0456 34.1605Z" fill="#0B2D28"/>
<path d="M73.6702 30L67.5202 22H65.8202V30H62.2952V11.5H65.8202V19.1H67.4452L73.3202 11.5H77.5452L70.4702 20.525L77.8952 30H73.6702ZM87.221 16.275C90.446 16.275 92.596 18.375 92.596 21.525V30H89.196V22.075C89.196 20.325 87.946 19.175 86.046 19.175C84.146 19.175 82.896 20.325 82.896 22.075V30H79.496V16.525H82.771L82.821 18.225C83.846 16.95 85.421 16.275 87.221 16.275ZM102.328 30.25C98.0028 30.25 95.1028 27.45 95.1028 23.25C95.1028 19.075 98.0028 16.275 102.328 16.275C106.628 16.275 109.528 19.075 109.528 23.25C109.528 27.45 106.628 30.25 102.328 30.25ZM102.328 27.325C104.528 27.325 106.003 25.7 106.003 23.25C106.003 20.8 104.528 19.175 102.328 19.175C100.103 19.175 98.6278 20.8 98.6278 23.25C98.6278 25.7 100.103 27.325 102.328 27.325ZM129.268 16.525H132.993L128.043 30H124.643L121.693 20.7L118.743 30H115.343L110.393 16.525H114.118L117.268 26.125L120.293 16.525H123.093L126.118 26.125L129.268 16.525ZM140.016 27.325C140.816 27.325 141.591 27.2 142.366 26.875V29.625C141.341 30.05 140.116 30.25 138.916 30.25C136.466 30.25 134.791 28.55 134.791 26V12.575H138.191V16.525H142.166V19.3H138.191V25.3C138.191 26.525 138.941 27.325 140.016 27.325Z" fill="#50D2C2"/>
</svg>
